<svg xmlns="http://www.w3.org/2000/svg" viewBox="0 0 400 240">
  <rect width="400" height="240" fill="#E8735A"/>
  <!-- Diagonal hatching -->
  <line x1="-240" y1="0" x2="0" y2="240" stroke="#fff" stroke-width="1" opacity="0.12"/>
  <line x1="-226" y1="0" x2="14" y2="240" stroke="#fff" stroke-width="1" opacity="0.12"/>
  <line x1="-212" y1="0" x2="28" y2="240" stroke="#fff" stroke-width="1" opacity="0.12"/>
  <line x1="-198" y1="0" x2="42" y2="240" stroke="#fff" stroke-width="1" opacity="0.12"/>
  <line x1="-184" y1="0" x2="56" y2="240" stroke="#fff" stroke-width="1" opacity="0.12"/>
  <line x1="-170" y1="0" x2="70" y2="240" stroke="#fff" stroke-width="1" opacity="0.12"/>
  <line x1="-156" y1="0" x2="84" y2="240" stroke="#fff" stroke-width="1" opacity="0.12"/>
  <line x1="-142" y1="0" x2="98" y2="240" stroke="#fff" stroke-width="1" opacity="0.12"/>
  <line x1="-128" y1="0" x2="112" y2="240" stroke="#fff" stroke-width="1" opacity="0.12"/>
  <line x1="-114" y1="0" x2="126" y2="240" stroke="#fff" stroke-width="1" opacity="0.12"/>
  <line x1="-100" y1="0" x2="140" y2="240" stroke="#fff" stroke-width="1" opacity="0.12"/>
  <line x1="-86" y1="0" x2="154" y2="240" stroke="#fff" stroke-width="1" opacity="0.12"/>
  <line x1="-72" y1="0" x2="168" y2="240" stroke="#fff" stroke-width="1" opacity="0.12"/>
  <line x1="-58" y1="0" x2="182" y2="240" stroke="#fff" stroke-width="1" opacity="0.12"/>
  <line x1="-44" y1="0" x2="196" y2="240" stroke="#fff" stroke-width="1" opacity="0.12"/>
  <line x1="-30" y1="0" x2="210" y2="240" stroke="#fff" stroke-width="1" opacity="0.12"/>
  <line x1="-16" y1="0" x2="224" y2="240" stroke="#fff" stroke-width="1" opacity="0.12"/>
  <line x1="-2" y1="0" x2="238" y2="240" stroke="#fff" stroke-width="1" opacity="0.12"/>
  <line x1="12" y1="0" x2="252" y2="240" stroke="#fff" stroke-width="1" opacity="0.12"/>
  <line x1="26" y1="0" x2="266" y2="240" stroke="#fff" stroke-width="1" opacity="0.12"/>
  <line x1="40" y1="0" x2="280" y2="240" stroke="#fff" stroke-width="1" opacity="0.12"/>
  <line x1="54" y1="0" x2="294" y2="240" stroke="#fff" stroke-width="1" opacity="0.12"/>
  <line x1="68" y1="0" x2="308" y2="240" stroke="#fff" stroke-width="1" opacity="0.12"/>
  <line x1="82" y1="0" x2="322" y2="240" stroke="#fff" stroke-width="1" opacity="0.12"/>
  <line x1="96" y1="0" x2="336" y2="240" stroke="#fff" stroke-width="1" opacity="0.12"/>
  <line x1="110" y1="0" x2="350" y2="240" stroke="#fff" stroke-width="1" opacity="0.12"/>
  <line x1="124" y1="0" x2="364" y2="240" stroke="#fff" stroke-width="1" opacity="0.12"/>
  <line x1="138" y1="0" x2="378" y2="240" stroke="#fff" stroke-width="1" opacity="0.12"/>
  <line x1="152" y1="0" x2="392" y2="240" stroke="#fff" stroke-width="1" opacity="0.12"/>
  <line x1="166" y1="0" x2="406" y2="240" stroke="#fff" stroke-width="1" opacity="0.12"/>
  <line x1="180" y1="0" x2="420" y2="240" stroke="#fff" stroke-width="1" opacity="0.12"/>
  <line x1="194" y1="0" x2="434" y2="240" stroke="#fff" stroke-width="1" opacity="0.12"/>
  <line x1="208" y1="0" x2="448" y2="240" stroke="#fff" stroke-width="1" opacity="0.12"/>

  <!-- White card -->
  <rect x="30" y="14" width="340" height="214" rx="10" fill="#f0ece4" opacity="0.97"/>

  <!-- Top bar: stars + review count + button -->
  <text x="50" y="38" font-family="system-ui,sans-serif" font-size="12" fill="#f5a623">★★★★★</text>
  <text x="120" y="38" font-family="system-ui,sans-serif" font-size="10" fill="#444">243 Reviews ∨</text>
  <rect x="290" y="25" width="64" height="18" rx="4" fill="none" stroke="#888" stroke-width="1"/>
  <text x="322" y="38" font-family="system-ui,sans-serif" font-size="9" fill="#555" text-anchor="middle">Write a review</text>

  <!-- Divider -->
  <line x1="50" y1="48" x2="350" y2="48" stroke="#ccc" stroke-width="0.5"/>

  <!-- Review 1 -->
  <text x="50" y="62" font-family="system-ui,sans-serif" font-size="9" font-weight="700" fill="#222">Jordan D.</text>
  <text x="50" y="74" font-family="system-ui,sans-serif" font-size="9" fill="#f5a623">★★★★★</text>
  <text x="50" y="85" font-family="system-ui,sans-serif" font-size="7.5" fill="#555">Hip &amp; Joint Topper is a must-have. It keeps our senior girl</text>
  <text x="50" y="94" font-family="system-ui,sans-serif" font-size="7.5" fill="#555">happy and on the move. Super easy!</text>
  <!-- Thumbnails -->
  <rect x="50" y="98" width="22" height="22" rx="3" fill="#c8b8a2"/>
  <rect x="76" y="98" width="22" height="22" rx="3" fill="#b8a898"/>

  <!-- Divider -->
  <line x1="50" y1="126" x2="350" y2="126" stroke="#ccc" stroke-width="0.5"/>

  <!-- Review 2 -->
  <text x="50" y="139" font-family="system-ui,sans-serif" font-size="9" font-weight="700" fill="#222">Maple</text>
  <text x="50" y="151" font-family="system-ui,sans-serif" font-size="9" fill="#f5a623">★★★★★</text>
  <text x="50" y="162" font-family="system-ui,sans-serif" font-size="7.5" fill="#555">Just received our topper! Easy to use and odor free.</text>
  <!-- Thumbnail with play icon -->
  <rect x="50" y="167" width="22" height="22" rx="3" fill="#a89880"/>
  <circle cx="61" cy="178" r="6" fill="rgba(0,0,0,0.35)"/>
  <polygon points="59,175 59,181 65,178" fill="#fff"/>

  <!-- Divider -->
  <line x1="50" y1="196" x2="350" y2="196" stroke="#ccc" stroke-width="0.5"/>

  <!-- Review 3 (partial) -->
  <text x="50" y="209" font-family="system-ui,sans-serif" font-size="9" font-weight="700" fill="#222">Theodore D.</text>
  <text x="50" y="221" font-family="system-ui,sans-serif" font-size="9" fill="#f5a623">★★★★★</text>
</svg>
