<svg xmlns="http://www.w3.org/2000/svg" viewBox="0 0 400 240">
  <rect width="400" height="240" fill="#7dcf8c"/>
  <!-- Diagonal hatching -->
  <line x1="-240" y1="0" x2="0" y2="240" stroke="#fff" stroke-width="1" opacity="0.12"/>
  <line x1="-226" y1="0" x2="14" y2="240" stroke="#fff" stroke-width="1" opacity="0.12"/>
  <line x1="-212" y1="0" x2="28" y2="240" stroke="#fff" stroke-width="1" opacity="0.12"/>
  <line x1="-198" y1="0" x2="42" y2="240" stroke="#fff" stroke-width="1" opacity="0.12"/>
  <line x1="-184" y1="0" x2="56" y2="240" stroke="#fff" stroke-width="1" opacity="0.12"/>
  <line x1="-170" y1="0" x2="70" y2="240" stroke="#fff" stroke-width="1" opacity="0.12"/>
  <line x1="-156" y1="0" x2="84" y2="240" stroke="#fff" stroke-width="1" opacity="0.12"/>
  <line x1="-142" y1="0" x2="98" y2="240" stroke="#fff" stroke-width="1" opacity="0.12"/>
  <line x1="-128" y1="0" x2="112" y2="240" stroke="#fff" stroke-width="1" opacity="0.12"/>
  <line x1="-114" y1="0" x2="126" y2="240" stroke="#fff" stroke-width="1" opacity="0.12"/>
  <line x1="-100" y1="0" x2="140" y2="240" stroke="#fff" stroke-width="1" opacity="0.12"/>
  <line x1="-86" y1="0" x2="154" y2="240" stroke="#fff" stroke-width="1" opacity="0.12"/>
  <line x1="-72" y1="0" x2="168" y2="240" stroke="#fff" stroke-width="1" opacity="0.12"/>
  <line x1="-58" y1="0" x2="182" y2="240" stroke="#fff" stroke-width="1" opacity="0.12"/>
  <line x1="-44" y1="0" x2="196" y2="240" stroke="#fff" stroke-width="1" opacity="0.12"/>
  <line x1="-30" y1="0" x2="210" y2="240" stroke="#fff" stroke-width="1" opacity="0.12"/>
  <line x1="-16" y1="0" x2="224" y2="240" stroke="#fff" stroke-width="1" opacity="0.12"/>
  <line x1="-2" y1="0" x2="238" y2="240" stroke="#fff" stroke-width="1" opacity="0.12"/>
  <line x1="12" y1="0" x2="252" y2="240" stroke="#fff" stroke-width="1" opacity="0.12"/>
  <line x1="26" y1="0" x2="266" y2="240" stroke="#fff" stroke-width="1" opacity="0.12"/>
  <line x1="40" y1="0" x2="280" y2="240" stroke="#fff" stroke-width="1" opacity="0.12"/>
  <line x1="54" y1="0" x2="294" y2="240" stroke="#fff" stroke-width="1" opacity="0.12"/>
  <line x1="68" y1="0" x2="308" y2="240" stroke="#fff" stroke-width="1" opacity="0.12"/>
  <line x1="82" y1="0" x2="322" y2="240" stroke="#fff" stroke-width="1" opacity="0.12"/>
  <line x1="96" y1="0" x2="336" y2="240" stroke="#fff" stroke-width="1" opacity="0.12"/>
  <line x1="110" y1="0" x2="350" y2="240" stroke="#fff" stroke-width="1" opacity="0.12"/>
  <line x1="124" y1="0" x2="364" y2="240" stroke="#fff" stroke-width="1" opacity="0.12"/>
  <line x1="138" y1="0" x2="378" y2="240" stroke="#fff" stroke-width="1" opacity="0.12"/>
  <line x1="152" y1="0" x2="392" y2="240" stroke="#fff" stroke-width="1" opacity="0.12"/>
  <!-- White card -->
  <rect x="35" y="18" width="330" height="204" rx="12" fill="#fff" opacity="0.95"/>
  <!-- Title -->
  <text x="200" y="44" font-family="system-ui,sans-serif" font-size="13" font-weight="700" fill="#1a2e4a" text-anchor="middle">Happy Customers</text>
  <!-- Row 1 -->
  <circle cx="68" cy="82" r="18" fill="#d8e8f0"/>
  <text x="68" y="86" font-family="system-ui,sans-serif" font-size="12" fill="#6aaed6" text-anchor="middle">A</text>
  <text x="96" y="76" font-family="system-ui,sans-serif" font-size="11" font-weight="600" fill="#1a2e4a">Alex R.</text>
  <text x="96" y="90" font-family="system-ui,sans-serif" font-size="11" fill="#f5a623">★★★★★</text>
  <rect x="96" y="97" width="180" height="7" rx="3" fill="#e8e8e8"/>
  <rect x="96" y="108" width="150" height="7" rx="3" fill="#e8e8e8"/>
  <!-- Divider -->
  <line x1="55" y1="128" x2="345" y2="128" stroke="#f0f0f0" stroke-width="1"/>
  <!-- Row 2 -->
  <circle cx="68" cy="158" r="18" fill="#f0e0d8"/>
  <text x="68" y="162" font-family="system-ui,sans-serif" font-size="12" fill="#e88060" text-anchor="middle">M</text>
  <text x="96" y="152" font-family="system-ui,sans-serif" font-size="11" font-weight="600" fill="#1a2e4a">Maria K.</text>
  <text x="96" y="166" font-family="system-ui,sans-serif" font-size="11" fill="#f5a623">★★★★★</text>
  <rect x="96" y="173" width="190" height="7" rx="3" fill="#e8e8e8"/>
  <rect x="96" y="184" width="160" height="7" rx="3" fill="#e8e8e8"/>
  <!-- Divider 2 -->
  <line x1="55" y1="202" x2="345" y2="202" stroke="#f0f0f0" stroke-width="1"/>
  <!-- Third row hint -->
  <circle cx="68" cy="214" r="10" fill="#e8d8f0" opacity="0.7"/>
  <rect x="88" y="208" width="120" height="6" rx="3" fill="#ececec" opacity="0.7"/>
</svg>
