<svg xmlns="http://www.w3.org/2000/svg" viewBox="0 0 400 240">
  <rect width="400" height="240" fill="#6aaed6"/>
  <g opacity="0.12" stroke="#fff" stroke-width="1"><line x1="-240" y1="0" x2="240" y2="480"/><line x1="-212" y1="0" x2="268" y2="480"/><line x1="-184" y1="0" x2="296" y2="480"/><line x1="-156" y1="0" x2="324" y2="480"/><line x1="-128" y1="0" x2="352" y2="480"/><line x1="-100" y1="0" x2="380" y2="480"/><line x1="-72" y1="0" x2="408" y2="480"/><line x1="-44" y1="0" x2="436" y2="480"/><line x1="-16" y1="0" x2="464" y2="480"/><line x1="12" y1="0" x2="492" y2="480"/><line x1="40" y1="0" x2="520" y2="480"/></g>
  <rect x="70" y="20" width="260" height="200" rx="12" fill="white" opacity="0.95"/>
  <text x="200" y="55" text-anchor="middle" font-family="system-ui,sans-serif" font-size="10" fill="#888">Taxes:</text>
  <rect x="240" y="47" width="60" height="8" rx="4" fill="#7dcf8c"/>
  <text x="200" y="73" text-anchor="middle" font-family="system-ui,sans-serif" font-size="10" fill="#888">Total:</text>
  <rect x="240" y="65" width="60" height="8" rx="4" fill="#7dcf8c"/>
  <rect x="90" y="90" width="220" height="36" rx="6" fill="#1a2e4a"/>
  <text x="200" y="114" text-anchor="middle" font-family="system-ui,sans-serif" font-size="11" fill="white" font-weight="600">Write a new review</text>
  <rect x="90" y="134" width="220" height="36" rx="6" fill="none" stroke="#c9c9c9" stroke-width="1.5"/>
  <text x="200" y="158" text-anchor="middle" font-family="system-ui,sans-serif" font-size="11" fill="#1a1a1a">View my reviews</text>
</svg>
