<svg xmlns="http://www.w3.org/2000/svg" viewBox="0 0 400 240">
  <rect width="400" height="240" fill="#6aaed6"/>
  <g opacity="0.12" stroke="#fff" stroke-width="1">
    <line x1="-240" y1="0" x2="240" y2="480"/><line x1="-226" y1="0" x2="254" y2="480"/><line x1="-212" y1="0" x2="268" y2="480"/><line x1="-198" y1="0" x2="282" y2="480"/><line x1="-184" y1="0" x2="296" y2="480"/><line x1="-170" y1="0" x2="310" y2="480"/><line x1="-156" y1="0" x2="324" y2="480"/><line x1="-142" y1="0" x2="338" y2="480"/><line x1="-128" y1="0" x2="352" y2="480"/><line x1="-114" y1="0" x2="366" y2="480"/><line x1="-100" y1="0" x2="380" y2="480"/><line x1="-86" y1="0" x2="394" y2="480"/><line x1="-72" y1="0" x2="408" y2="480"/><line x1="-58" y1="0" x2="422" y2="480"/><line x1="-44" y1="0" x2="436" y2="480"/><line x1="-30" y1="0" x2="450" y2="480"/><line x1="-16" y1="0" x2="464" y2="480"/><line x1="-2" y1="0" x2="478" y2="480"/><line x1="12" y1="0" x2="492" y2="480"/><line x1="26" y1="0" x2="506" y2="480"/><line x1="40" y1="0" x2="520" y2="480"/><line x1="54" y1="0" x2="534" y2="480"/><line x1="68" y1="0" x2="548" y2="480"/><line x1="82" y1="0" x2="562" y2="480"/><line x1="96" y1="0" x2="576" y2="480"/><line x1="110" y1="0" x2="590" y2="480"/><line x1="124" y1="0" x2="604" y2="480"/><line x1="138" y1="0" x2="618" y2="480"/><line x1="152" y1="0" x2="632" y2="480"/>
  </g>
  <rect x="60" y="25" width="280" height="190" rx="12" fill="white" opacity="0.95"/>
  <text x="200" y="65" text-anchor="middle" font-family="system-ui,sans-serif" font-size="13" fill="#1a2e4a" font-weight="700">★★★★★  123 reviews</text>
  <circle cx="130" cy="120" r="28" fill="none" stroke="#1a2e4a" stroke-width="2"/>
  <text x="130" y="113" text-anchor="middle" font-family="system-ui,sans-serif" font-size="7" fill="#1a2e4a" font-weight="600">TOP</text>
  <text x="130" y="122" text-anchor="middle" font-family="system-ui,sans-serif" font-size="8" fill="#1a2e4a" font-weight="700">10%</text>
  <text x="130" y="131" text-anchor="middle" font-family="system-ui,sans-serif" font-size="7" fill="#1a2e4a">STORES</text>
  <circle cx="200" cy="120" r="28" fill="none" stroke="#1a2e4a" stroke-width="2"/>
  <text x="200" y="115" text-anchor="middle" font-family="system-ui,sans-serif" font-size="7" fill="#1a2e4a" font-weight="600">GOLD</text>
  <text x="200" y="124" text-anchor="middle" font-family="system-ui,sans-serif" font-size="6.5" fill="#1a2e4a">AUTHENTIC</text>
  <circle cx="270" cy="120" r="28" fill="none" stroke="#1a2e4a" stroke-width="2"/>
  <text x="270" y="115" text-anchor="middle" font-family="system-ui,sans-serif" font-size="6" fill="#1a2e4a" font-weight="600">DIAMOND</text>
  <text x="270" y="124" text-anchor="middle" font-family="system-ui,sans-serif" font-size="6" fill="#1a2e4a">TRANSPRNCY</text>
  <text x="200" y="178" text-anchor="middle" font-family="system-ui,sans-serif" font-size="11" fill="#1a2e4a" font-weight="600">Verified by ✓ rayt.ca</text>
</svg>
