<svg xmlns="http://www.w3.org/2000/svg" viewBox="0 0 400 240">
  <rect width="400" height="240" fill="#a8e6b0"/>
  <g opacity="0.12" stroke="#fff" stroke-width="1"><line x1="-240" y1="0" x2="240" y2="480"/><line x1="-212" y1="0" x2="268" y2="480"/><line x1="-184" y1="0" x2="296" y2="480"/><line x1="-156" y1="0" x2="324" y2="480"/><line x1="-128" y1="0" x2="352" y2="480"/><line x1="-100" y1="0" x2="380" y2="480"/><line x1="-72" y1="0" x2="408" y2="480"/><line x1="-44" y1="0" x2="436" y2="480"/><line x1="-16" y1="0" x2="464" y2="480"/><line x1="12" y1="0" x2="492" y2="480"/><line x1="40" y1="0" x2="520" y2="480"/></g>
  <rect x="70" y="20" width="260" height="200" rx="12" fill="white" opacity="0.95"/>
  <rect x="80" y="30" width="78" height="58" rx="4" fill="#c8a882"/>
  <rect x="162" y="30" width="78" height="58" rx="4" fill="#8b7355"/>
  <rect x="244" y="30" width="78" height="58" rx="4" fill="#6b8e6b"/>
  <rect x="80" y="92" width="78" height="58" rx="4" fill="#7d9b9b"/>
  <rect x="162" y="92" width="78" height="58" rx="4" fill="#b8956a"/>
  <rect x="244" y="92" width="78" height="58" rx="4" fill="#8f7aa0"/>
  <text x="200" y="180" text-anchor="middle" font-family="system-ui,sans-serif" font-size="10" fill="#555">User Generated Content</text>
</svg>
