<svg xmlns="http://www.w3.org/2000/svg" viewBox="0 0 400 240">
  <!-- Background -->
  <rect width="400" height="240" fill="#a87dcf"/>
  <!-- Diagonal hatching -->
  <line x1="-240" y1="0" x2="0" y2="240" stroke="#fff" stroke-width="1" opacity="0.12"/>
  <line x1="-226" y1="0" x2="14" y2="240" stroke="#fff" stroke-width="1" opacity="0.12"/>
  <line x1="-212" y1="0" x2="28" y2="240" stroke="#fff" stroke-width="1" opacity="0.12"/>
  <line x1="-198" y1="0" x2="42" y2="240" stroke="#fff" stroke-width="1" opacity="0.12"/>
  <line x1="-184" y1="0" x2="56" y2="240" stroke="#fff" stroke-width="1" opacity="0.12"/>
  <line x1="-170" y1="0" x2="70" y2="240" stroke="#fff" stroke-width="1" opacity="0.12"/>
  <line x1="-156" y1="0" x2="84" y2="240" stroke="#fff" stroke-width="1" opacity="0.12"/>
  <line x1="-142" y1="0" x2="98" y2="240" stroke="#fff" stroke-width="1" opacity="0.12"/>
  <line x1="-128" y1="0" x2="112" y2="240" stroke="#fff" stroke-width="1" opacity="0.12"/>
  <line x1="-114" y1="0" x2="126" y2="240" stroke="#fff" stroke-width="1" opacity="0.12"/>
  <line x1="-100" y1="0" x2="140" y2="240" stroke="#fff" stroke-width="1" opacity="0.12"/>
  <line x1="-86" y1="0" x2="154" y2="240" stroke="#fff" stroke-width="1" opacity="0.12"/>
  <line x1="-72" y1="0" x2="168" y2="240" stroke="#fff" stroke-width="1" opacity="0.12"/>
  <line x1="-58" y1="0" x2="182" y2="240" stroke="#fff" stroke-width="1" opacity="0.12"/>
  <line x1="-44" y1="0" x2="196" y2="240" stroke="#fff" stroke-width="1" opacity="0.12"/>
  <line x1="-30" y1="0" x2="210" y2="240" stroke="#fff" stroke-width="1" opacity="0.12"/>
  <line x1="-16" y1="0" x2="224" y2="240" stroke="#fff" stroke-width="1" opacity="0.12"/>
  <line x1="-2" y1="0" x2="238" y2="240" stroke="#fff" stroke-width="1" opacity="0.12"/>
  <line x1="12" y1="0" x2="252" y2="240" stroke="#fff" stroke-width="1" opacity="0.12"/>
  <line x1="26" y1="0" x2="266" y2="240" stroke="#fff" stroke-width="1" opacity="0.12"/>
  <line x1="40" y1="0" x2="280" y2="240" stroke="#fff" stroke-width="1" opacity="0.12"/>
  <line x1="54" y1="0" x2="294" y2="240" stroke="#fff" stroke-width="1" opacity="0.12"/>
  <line x1="68" y1="0" x2="308" y2="240" stroke="#fff" stroke-width="1" opacity="0.12"/>
  <line x1="82" y1="0" x2="322" y2="240" stroke="#fff" stroke-width="1" opacity="0.12"/>
  <line x1="96" y1="0" x2="336" y2="240" stroke="#fff" stroke-width="1" opacity="0.12"/>
  <line x1="110" y1="0" x2="350" y2="240" stroke="#fff" stroke-width="1" opacity="0.12"/>
  <line x1="124" y1="0" x2="364" y2="240" stroke="#fff" stroke-width="1" opacity="0.12"/>
  <line x1="138" y1="0" x2="378" y2="240" stroke="#fff" stroke-width="1" opacity="0.12"/>
  <line x1="152" y1="0" x2="392" y2="240" stroke="#fff" stroke-width="1" opacity="0.12"/>
  <!-- Outer white container -->
  <rect x="20" y="14" width="360" height="196" rx="12" fill="#fff" opacity="0.95"/>
  <!-- Left text review card -->
  <rect x="32" y="24" width="128" height="166" rx="8" fill="#f7f5f0"/>
  <!-- Quote mark -->
  <text x="46" y="54" font-family="Georgia,serif" font-size="26" fill="#d0c8e0" font-weight="bold">"</text>
  <!-- Stars -->
  <text x="48" y="72" font-family="system-ui,sans-serif" font-size="10" fill="#f5a623">★★★★★</text>
  <!-- Review text lines -->
  <rect x="48" y="82" width="100" height="5" rx="2" fill="#ddd"/>
  <rect x="48" y="91" width="90" height="5" rx="2" fill="#ddd"/>
  <rect x="48" y="100" width="105" height="5" rx="2" fill="#ddd"/>
  <rect x="48" y="109" width="80" height="5" rx="2" fill="#ddd"/>
  <rect x="48" y="118" width="95" height="5" rx="2" fill="#ddd"/>
  <rect x="48" y="127" width="70" height="5" rx="2" fill="#e8e8e8"/>
  <!-- Reviewer name -->
  <rect x="48" y="170" width="65" height="4" rx="2" fill="#bbb"/>
  <!-- Nav arrow left -->
  <circle cx="42" cy="114" r="13" fill="#ede8f5"/>
  <text x="42" y="119" font-family="system-ui,sans-serif" font-size="14" fill="#8860b8" text-anchor="middle">&#8249;</text>
  <!-- Photo tiles (right side) -->
  <!-- Tile 1 -->
  <rect x="170" y="24" width="54" height="166" rx="7" fill="#d8c8f0"/>
  <rect x="178" y="80" width="38" height="6" rx="3" fill="#bfaedd"/>
  <rect x="180" y="90" width="30" height="5" rx="2" fill="#cfc0e8"/>
  <!-- Tile 2 -->
  <rect x="230" y="24" width="54" height="166" rx="7" fill="#c8e0d8"/>
  <rect x="238" y="80" width="38" height="6" rx="3" fill="#a8ccbc"/>
  <rect x="240" y="90" width="30" height="5" rx="2" fill="#b8d8c8"/>
  <!-- Tile 3 (partially clipped) -->
  <rect x="290" y="24" width="54" height="166" rx="7" fill="#f0dcc8"/>
  <rect x="298" y="80" width="38" height="6" rx="3" fill="#ddc0a0"/>
  <rect x="300" y="90" width="30" height="5" rx="2" fill="#e8cdb0"/>
  <!-- Nav arrow right -->
  <circle cx="358" cy="114" r="13" fill="#ede8f5"/>
  <text x="358" y="119" font-family="system-ui,sans-serif" font-size="14" fill="#8860b8" text-anchor="middle">&#8250;</text>
  <!-- Dot pagination -->
  <circle cx="180" cy="222" r="5" fill="#a87dcf"/>
  <circle cx="194" cy="222" r="4" fill="#ccc"/>
  <circle cx="207" cy="222" r="4" fill="#ccc"/>
  <circle cx="220" cy="222" r="4" fill="#ccc"/>
</svg>
