<svg xmlns="http://www.w3.org/2000/svg" viewBox="0 0 400 240">
  <rect width="400" height="240" fill="#7dcf8c"/>
  <!-- Diagonal hatching -->
  <line x1="-240" y1="0" x2="0" y2="240" stroke="#fff" stroke-width="1" opacity="0.12"/>
  <line x1="-226" y1="0" x2="14" y2="240" stroke="#fff" stroke-width="1" opacity="0.12"/>
  <line x1="-212" y1="0" x2="28" y2="240" stroke="#fff" stroke-width="1" opacity="0.12"/>
  <line x1="-198" y1="0" x2="42" y2="240" stroke="#fff" stroke-width="1" opacity="0.12"/>
  <line x1="-184" y1="0" x2="56" y2="240" stroke="#fff" stroke-width="1" opacity="0.12"/>
  <line x1="-170" y1="0" x2="70" y2="240" stroke="#fff" stroke-width="1" opacity="0.12"/>
  <line x1="-156" y1="0" x2="84" y2="240" stroke="#fff" stroke-width="1" opacity="0.12"/>
  <line x1="-142" y1="0" x2="98" y2="240" stroke="#fff" stroke-width="1" opacity="0.12"/>
  <line x1="-128" y1="0" x2="112" y2="240" stroke="#fff" stroke-width="1" opacity="0.12"/>
  <line x1="-114" y1="0" x2="126" y2="240" stroke="#fff" stroke-width="1" opacity="0.12"/>
  <line x1="-100" y1="0" x2="140" y2="240" stroke="#fff" stroke-width="1" opacity="0.12"/>
  <line x1="-86" y1="0" x2="154" y2="240" stroke="#fff" stroke-width="1" opacity="0.12"/>
  <line x1="-72" y1="0" x2="168" y2="240" stroke="#fff" stroke-width="1" opacity="0.12"/>
  <line x1="-58" y1="0" x2="182" y2="240" stroke="#fff" stroke-width="1" opacity="0.12"/>
  <line x1="-44" y1="0" x2="196" y2="240" stroke="#fff" stroke-width="1" opacity="0.12"/>
  <line x1="-30" y1="0" x2="210" y2="240" stroke="#fff" stroke-width="1" opacity="0.12"/>
  <line x1="-16" y1="0" x2="224" y2="240" stroke="#fff" stroke-width="1" opacity="0.12"/>
  <line x1="-2" y1="0" x2="238" y2="240" stroke="#fff" stroke-width="1" opacity="0.12"/>
  <line x1="12" y1="0" x2="252" y2="240" stroke="#fff" stroke-width="1" opacity="0.12"/>
  <line x1="26" y1="0" x2="266" y2="240" stroke="#fff" stroke-width="1" opacity="0.12"/>
  <line x1="40" y1="0" x2="280" y2="240" stroke="#fff" stroke-width="1" opacity="0.12"/>
  <line x1="54" y1="0" x2="294" y2="240" stroke="#fff" stroke-width="1" opacity="0.12"/>
  <line x1="68" y1="0" x2="308" y2="240" stroke="#fff" stroke-width="1" opacity="0.12"/>
  <line x1="82" y1="0" x2="322" y2="240" stroke="#fff" stroke-width="1" opacity="0.12"/>
  <line x1="96" y1="0" x2="336" y2="240" stroke="#fff" stroke-width="1" opacity="0.12"/>
  <line x1="110" y1="0" x2="350" y2="240" stroke="#fff" stroke-width="1" opacity="0.12"/>
  <line x1="124" y1="0" x2="364" y2="240" stroke="#fff" stroke-width="1" opacity="0.12"/>
  <line x1="138" y1="0" x2="378" y2="240" stroke="#fff" stroke-width="1" opacity="0.12"/>
  <line x1="152" y1="0" x2="392" y2="240" stroke="#fff" stroke-width="1" opacity="0.12"/>
  <!-- White page card (70% width) -->
  <rect x="20" y="20" width="308" height="200" rx="10" fill="#fff" opacity="0.95"/>
  <!-- Page content lines -->
  <rect x="40" y="40" width="180" height="9" rx="4" fill="#e8e8e8"/>
  <rect x="40" y="56" width="240" height="7" rx="3" fill="#eeeeee"/>
  <rect x="40" y="69" width="220" height="7" rx="3" fill="#eeeeee"/>
  <rect x="40" y="82" width="200" height="7" rx="3" fill="#eeeeee"/>
  <!-- Product image placeholder -->
  <rect x="40" y="102" width="80" height="80" rx="6" fill="#e8f0e8"/>
  <rect x="130" y="102" width="80" height="80" rx="6" fill="#e8e8f0"/>
  <rect x="220" y="102" width="80" height="80" rx="6" fill="#f0e8e8"/>
  <!-- Bottom line -->
  <rect x="40" y="196" width="160" height="7" rx="3" fill="#eeeeee"/>
  <!-- Floating tab — vertical pill on right edge of card -->
  <rect x="308" y="80" width="52" height="100" rx="26" fill="#1a2e4a"/>
  <!-- Stars on tab (vertical, written rotated) -->
  <text x="334" y="108" font-family="system-ui,sans-serif" font-size="10" fill="#f5a623" text-anchor="middle">★</text>
  <text x="334" y="122" font-family="system-ui,sans-serif" font-size="10" fill="#f5a623" text-anchor="middle">★</text>
  <text x="334" y="136" font-family="system-ui,sans-serif" font-size="10" fill="#f5a623" text-anchor="middle">★</text>
  <text x="334" y="150" font-family="system-ui,sans-serif" font-size="10" fill="#f5a623" text-anchor="middle">★</text>
  <!-- Rating text -->
  <text x="334" y="167" font-family="system-ui,sans-serif" font-size="9" fill="#fff" text-anchor="middle" font-weight="600">4.2</text>
</svg>
