<svg xmlns="http://www.w3.org/2000/svg" viewBox="0 0 400 240">
  <rect width="400" height="240" fill="#F5C842"/>
  <!-- Diagonal hatching -->
  <line x1="-240" y1="0" x2="0" y2="240" stroke="#fff" stroke-width="1" opacity="0.12"/>
  <line x1="-226" y1="0" x2="14" y2="240" stroke="#fff" stroke-width="1" opacity="0.12"/>
  <line x1="-212" y1="0" x2="28" y2="240" stroke="#fff" stroke-width="1" opacity="0.12"/>
  <line x1="-198" y1="0" x2="42" y2="240" stroke="#fff" stroke-width="1" opacity="0.12"/>
  <line x1="-184" y1="0" x2="56" y2="240" stroke="#fff" stroke-width="1" opacity="0.12"/>
  <line x1="-170" y1="0" x2="70" y2="240" stroke="#fff" stroke-width="1" opacity="0.12"/>
  <line x1="-156" y1="0" x2="84" y2="240" stroke="#fff" stroke-width="1" opacity="0.12"/>
  <line x1="-142" y1="0" x2="98" y2="240" stroke="#fff" stroke-width="1" opacity="0.12"/>
  <line x1="-128" y1="0" x2="112" y2="240" stroke="#fff" stroke-width="1" opacity="0.12"/>
  <line x1="-114" y1="0" x2="126" y2="240" stroke="#fff" stroke-width="1" opacity="0.12"/>
  <line x1="-100" y1="0" x2="140" y2="240" stroke="#fff" stroke-width="1" opacity="0.12"/>
  <line x1="-86" y1="0" x2="154" y2="240" stroke="#fff" stroke-width="1" opacity="0.12"/>
  <line x1="-72" y1="0" x2="168" y2="240" stroke="#fff" stroke-width="1" opacity="0.12"/>
  <line x1="-58" y1="0" x2="182" y2="240" stroke="#fff" stroke-width="1" opacity="0.12"/>
  <line x1="-44" y1="0" x2="196" y2="240" stroke="#fff" stroke-width="1" opacity="0.12"/>
  <line x1="-30" y1="0" x2="210" y2="240" stroke="#fff" stroke-width="1" opacity="0.12"/>
  <line x1="-16" y1="0" x2="224" y2="240" stroke="#fff" stroke-width="1" opacity="0.12"/>
  <line x1="-2" y1="0" x2="238" y2="240" stroke="#fff" stroke-width="1" opacity="0.12"/>
  <line x1="12" y1="0" x2="252" y2="240" stroke="#fff" stroke-width="1" opacity="0.12"/>
  <line x1="26" y1="0" x2="266" y2="240" stroke="#fff" stroke-width="1" opacity="0.12"/>
  <line x1="40" y1="0" x2="280" y2="240" stroke="#fff" stroke-width="1" opacity="0.12"/>
  <line x1="54" y1="0" x2="294" y2="240" stroke="#fff" stroke-width="1" opacity="0.12"/>
  <line x1="68" y1="0" x2="308" y2="240" stroke="#fff" stroke-width="1" opacity="0.12"/>
  <line x1="82" y1="0" x2="322" y2="240" stroke="#fff" stroke-width="1" opacity="0.12"/>
  <line x1="96" y1="0" x2="336" y2="240" stroke="#fff" stroke-width="1" opacity="0.12"/>
  <line x1="110" y1="0" x2="350" y2="240" stroke="#fff" stroke-width="1" opacity="0.12"/>
  <line x1="124" y1="0" x2="364" y2="240" stroke="#fff" stroke-width="1" opacity="0.12"/>
  <line x1="138" y1="0" x2="378" y2="240" stroke="#fff" stroke-width="1" opacity="0.12"/>
  <line x1="152" y1="0" x2="392" y2="240" stroke="#fff" stroke-width="1" opacity="0.12"/>
  <line x1="166" y1="0" x2="406" y2="240" stroke="#fff" stroke-width="1" opacity="0.12"/>
  <line x1="180" y1="0" x2="420" y2="240" stroke="#fff" stroke-width="1" opacity="0.12"/>
  <line x1="194" y1="0" x2="434" y2="240" stroke="#fff" stroke-width="1" opacity="0.12"/>
  <line x1="208" y1="0" x2="448" y2="240" stroke="#fff" stroke-width="1" opacity="0.12"/>

  <!-- Outer white card -->
  <rect x="22" y="12" width="356" height="218" rx="10" fill="#f8f6f2" opacity="0.97"/>

  <!-- Top bar: stars + review count + filter icon -->
  <text x="38" y="30" font-family="system-ui,sans-serif" font-size="11" fill="#f5a623">★★★★★</text>
  <text x="100" y="30" font-family="system-ui,sans-serif" font-size="8.5" fill="#333">1,117 Reviews ∨</text>
  <!-- Filter icon (3 lines) -->
  <line x1="355" y1="24" x2="367" y2="24" stroke="#555" stroke-width="1.5"/>
  <line x1="357" y1="28" x2="365" y2="28" stroke="#555" stroke-width="1.5"/>
  <line x1="359" y1="32" x2="363" y2="32" stroke="#555" stroke-width="1.5"/>

  <!-- Divider -->
  <line x1="30" y1="37" x2="370" y2="37" stroke="#ddd" stroke-width="0.5"/>

  <!-- === Row 1 === -->

  <!-- Card TL: Briana N. -->
  <rect x="30" y="42" width="164" height="82" rx="5" fill="#fff" stroke="#eee" stroke-width="0.5"/>
  <text x="40" y="55" font-family="system-ui,sans-serif" font-size="8" font-weight="700" fill="#222">Briana N.</text>
  <text x="40" y="64" font-family="system-ui,sans-serif" font-size="7" fill="#999">9/18/2023</text>
  <text x="40" y="73" font-family="system-ui,sans-serif" font-size="8" fill="#f5a623">★★★★★</text>
  <text x="40" y="83" font-family="system-ui,sans-serif" font-size="6.5" fill="#555">Perfect arch for two kids.</text>
  <text x="40" y="91" font-family="system-ui,sans-serif" font-size="6.5" fill="#555">All day adventure!</text>
  <!-- product row -->
  <rect x="38" y="108" width="12" height="10" rx="2" fill="#c8b8a2"/>
  <text x="54" y="116" font-family="system-ui,sans-serif" font-size="5.5" fill="#777">Balis – Climbing Arch</text>
  <!-- photo thumbnail -->
  <rect x="146" y="50" width="38" height="38" rx="4" fill="#b8c8d8"/>
  <rect x="149" y="53" width="32" height="32" rx="2" fill="#a0b4c8"/>

  <!-- Card TR: Judy J. -->
  <rect x="200" y="42" width="168" height="82" rx="5" fill="#fff" stroke="#eee" stroke-width="0.5"/>
  <text x="210" y="55" font-family="system-ui,sans-serif" font-size="8" font-weight="700" fill="#222">Judy J.</text>
  <text x="210" y="64" font-family="system-ui,sans-serif" font-size="7" fill="#999">9/16/2023</text>
  <text x="210" y="73" font-family="system-ui,sans-serif" font-size="8" fill="#f5a623">★★★★★</text>
  <text x="210" y="83" font-family="system-ui,sans-serif" font-size="6.5" fill="#555">Easy to put together</text>
  <text x="210" y="91" font-family="system-ui,sans-serif" font-size="6.5" fill="#555">and very sturdy.</text>
  <!-- product row -->
  <rect x="208" y="108" width="12" height="10" rx="2" fill="#8faac8"/>
  <text x="224" y="116" font-family="system-ui,sans-serif" font-size="5.5" fill="#777">Date – 4 in 1 Kitchen Tower</text>
  <!-- photo thumbnail -->
  <rect x="314" y="50" width="44" height="38" rx="4" fill="#c8bca0"/>
  <rect x="317" y="53" width="38" height="32" rx="2" fill="#b8aa90"/>

  <!-- === Row 2 === -->

  <!-- Card BL: Nicolas G. -->
  <rect x="30" y="130" width="164" height="82" rx="5" fill="#fff" stroke="#eee" stroke-width="0.5"/>
  <text x="40" y="143" font-family="system-ui,sans-serif" font-size="8" font-weight="700" fill="#222">Nicolas G.</text>
  <text x="40" y="152" font-family="system-ui,sans-serif" font-size="7" fill="#999">9/12/2023</text>
  <text x="40" y="161" font-family="system-ui,sans-serif" font-size="8" fill="#f5a623">★★★★★</text>
  <text x="40" y="171" font-family="system-ui,sans-serif" font-size="6.5" fill="#555">Kids love it! Best addition</text>
  <text x="40" y="179" font-family="system-ui,sans-serif" font-size="6.5" fill="#555">to their playroom.</text>
  <!-- product row -->
  <rect x="38" y="196" width="12" height="10" rx="2" fill="#d4c4a8"/>
  <text x="54" y="204" font-family="system-ui,sans-serif" font-size="5.5" fill="#777">Magnolia – 7-in-1 Playset</text>
  <!-- photo thumbnail -->
  <rect x="146" y="138" width="38" height="38" rx="4" fill="#c0c8b8"/>
  <rect x="149" y="141" width="32" height="32" rx="2" fill="#aab89a"/>

  <!-- Card BR: Bill B. -->
  <rect x="200" y="130" width="168" height="82" rx="5" fill="#fff" stroke="#eee" stroke-width="0.5"/>
  <text x="210" y="143" font-family="system-ui,sans-serif" font-size="8" font-weight="700" fill="#222">Bill B.</text>
  <text x="210" y="152" font-family="system-ui,sans-serif" font-size="7" fill="#999">9/1/2023</text>
  <text x="210" y="161" font-family="system-ui,sans-serif" font-size="8" fill="#f5a623">★★★★★</text>
  <text x="210" y="171" font-family="system-ui,sans-serif" font-size="6.5" fill="#555">High quality finishes.</text>
  <text x="210" y="179" font-family="system-ui,sans-serif" font-size="6.5" fill="#555">Perfect size for 2 year old.</text>
  <!-- product row -->
  <rect x="208" y="196" width="12" height="10" rx="2" fill="#a8b8a0"/>
  <text x="224" y="204" font-family="system-ui,sans-serif" font-size="5.5" fill="#777">Forest – Outdoor Swing Set</text>
  <!-- photo thumbnail -->
  <rect x="314" y="138" width="44" height="38" rx="4" fill="#b0c0a8"/>
  <rect x="317" y="141" width="38" height="32" rx="2" fill="#a0b098"/>
</svg>
