<svg xmlns="http://www.w3.org/2000/svg" viewBox="0 0 400 240">
  <rect width="400" height="240" fill="#6aaed6"/>
  <!-- Diagonal hatching -->
  <line x1="-240" y1="0" x2="0" y2="240" stroke="#fff" stroke-width="1" opacity="0.12"/>
  <line x1="-226" y1="0" x2="14" y2="240" stroke="#fff" stroke-width="1" opacity="0.12"/>
  <line x1="-212" y1="0" x2="28" y2="240" stroke="#fff" stroke-width="1" opacity="0.12"/>
  <line x1="-198" y1="0" x2="42" y2="240" stroke="#fff" stroke-width="1" opacity="0.12"/>
  <line x1="-184" y1="0" x2="56" y2="240" stroke="#fff" stroke-width="1" opacity="0.12"/>
  <line x1="-170" y1="0" x2="70" y2="240" stroke="#fff" stroke-width="1" opacity="0.12"/>
  <line x1="-156" y1="0" x2="84" y2="240" stroke="#fff" stroke-width="1" opacity="0.12"/>
  <line x1="-142" y1="0" x2="98" y2="240" stroke="#fff" stroke-width="1" opacity="0.12"/>
  <line x1="-128" y1="0" x2="112" y2="240" stroke="#fff" stroke-width="1" opacity="0.12"/>
  <line x1="-114" y1="0" x2="126" y2="240" stroke="#fff" stroke-width="1" opacity="0.12"/>
  <line x1="-100" y1="0" x2="140" y2="240" stroke="#fff" stroke-width="1" opacity="0.12"/>
  <line x1="-86" y1="0" x2="154" y2="240" stroke="#fff" stroke-width="1" opacity="0.12"/>
  <line x1="-72" y1="0" x2="168" y2="240" stroke="#fff" stroke-width="1" opacity="0.12"/>
  <line x1="-58" y1="0" x2="182" y2="240" stroke="#fff" stroke-width="1" opacity="0.12"/>
  <line x1="-44" y1="0" x2="196" y2="240" stroke="#fff" stroke-width="1" opacity="0.12"/>
  <line x1="-30" y1="0" x2="210" y2="240" stroke="#fff" stroke-width="1" opacity="0.12"/>
  <line x1="-16" y1="0" x2="224" y2="240" stroke="#fff" stroke-width="1" opacity="0.12"/>
  <line x1="-2" y1="0" x2="238" y2="240" stroke="#fff" stroke-width="1" opacity="0.12"/>
  <line x1="12" y1="0" x2="252" y2="240" stroke="#fff" stroke-width="1" opacity="0.12"/>
  <line x1="26" y1="0" x2="266" y2="240" stroke="#fff" stroke-width="1" opacity="0.12"/>
  <line x1="40" y1="0" x2="280" y2="240" stroke="#fff" stroke-width="1" opacity="0.12"/>
  <line x1="54" y1="0" x2="294" y2="240" stroke="#fff" stroke-width="1" opacity="0.12"/>
  <line x1="68" y1="0" x2="308" y2="240" stroke="#fff" stroke-width="1" opacity="0.12"/>
  <line x1="82" y1="0" x2="322" y2="240" stroke="#fff" stroke-width="1" opacity="0.12"/>
  <line x1="96" y1="0" x2="336" y2="240" stroke="#fff" stroke-width="1" opacity="0.12"/>
  <line x1="110" y1="0" x2="350" y2="240" stroke="#fff" stroke-width="1" opacity="0.12"/>
  <line x1="124" y1="0" x2="364" y2="240" stroke="#fff" stroke-width="1" opacity="0.12"/>
  <line x1="138" y1="0" x2="378" y2="240" stroke="#fff" stroke-width="1" opacity="0.12"/>
  <line x1="152" y1="0" x2="392" y2="240" stroke="#fff" stroke-width="1" opacity="0.12"/>
  <!-- Background page mockup -->
  <rect x="10" y="10" width="380" height="220" rx="6" fill="#e8f4fb" opacity="0.5"/>
  <!-- Page content lines -->
  <rect x="30" y="30" width="200" height="8" rx="3" fill="#d0dce8" opacity="0.6"/>
  <rect x="30" y="46" width="280" height="6" rx="3" fill="#d0dce8" opacity="0.4"/>
  <rect x="30" y="58" width="260" height="6" rx="3" fill="#d0dce8" opacity="0.4"/>
  <!-- Overlay dim -->
  <rect x="10" y="10" width="380" height="220" rx="6" fill="#000" opacity="0.18"/>
  <!-- Popup white card -->
  <rect x="60" y="45" width="280" height="155" rx="10" fill="#fff" filter="url(#shadow)"/>
  <!-- X close button -->
  <circle cx="328" cy="57" r="10" fill="#f0f0f0"/>
  <text x="328" y="62" font-family="system-ui,sans-serif" font-size="11" fill="#666" text-anchor="middle">×</text>
  <!-- Photo on left -->
  <rect x="76" y="62" width="80" height="120" rx="6" fill="#d8e8f0"/>
  <!-- Content on right -->
  <text x="170" y="82" font-family="system-ui,sans-serif" font-size="10" font-weight="700" fill="#1a2e4a">Sarah M.</text>
  <text x="170" y="100" font-family="system-ui,sans-serif" font-size="13" fill="#f5a623">★★★★★</text>
  <rect x="170" y="110" width="148" height="7" rx="3" fill="#e0e0e0"/>
  <rect x="170" y="122" width="140" height="7" rx="3" fill="#e0e0e0"/>
  <rect x="170" y="134" width="120" height="7" rx="3" fill="#e0e0e0"/>
  <rect x="170" y="146" width="130" height="7" rx="3" fill="#e0e0e0"/>
  <!-- Verified badge -->
  <rect x="170" y="162" width="70" height="16" rx="8" fill="#7dcf8c"/>
  <text x="205" y="174" font-family="system-ui,sans-serif" font-size="8" fill="#fff" text-anchor="middle">✓ Verified</text>
</svg>
