<svg xmlns="http://www.w3.org/2000/svg" viewBox="0 0 400 240">
  <rect width="400" height="240" fill="#7dcf8c"/>
  <!-- Diagonal hatching -->
  <line x1="-240" y1="0" x2="0" y2="240" stroke="#fff" stroke-width="1" opacity="0.12"/>
  <line x1="-226" y1="0" x2="14" y2="240" stroke="#fff" stroke-width="1" opacity="0.12"/>
  <line x1="-212" y1="0" x2="28" y2="240" stroke="#fff" stroke-width="1" opacity="0.12"/>
  <line x1="-198" y1="0" x2="42" y2="240" stroke="#fff" stroke-width="1" opacity="0.12"/>
  <line x1="-184" y1="0" x2="56" y2="240" stroke="#fff" stroke-width="1" opacity="0.12"/>
  <line x1="-170" y1="0" x2="70" y2="240" stroke="#fff" stroke-width="1" opacity="0.12"/>
  <line x1="-156" y1="0" x2="84" y2="240" stroke="#fff" stroke-width="1" opacity="0.12"/>
  <line x1="-142" y1="0" x2="98" y2="240" stroke="#fff" stroke-width="1" opacity="0.12"/>
  <line x1="-128" y1="0" x2="112" y2="240" stroke="#fff" stroke-width="1" opacity="0.12"/>
  <line x1="-114" y1="0" x2="126" y2="240" stroke="#fff" stroke-width="1" opacity="0.12"/>
  <line x1="-100" y1="0" x2="140" y2="240" stroke="#fff" stroke-width="1" opacity="0.12"/>
  <line x1="-86" y1="0" x2="154" y2="240" stroke="#fff" stroke-width="1" opacity="0.12"/>
  <line x1="-72" y1="0" x2="168" y2="240" stroke="#fff" stroke-width="1" opacity="0.12"/>
  <line x1="-58" y1="0" x2="182" y2="240" stroke="#fff" stroke-width="1" opacity="0.12"/>
  <line x1="-44" y1="0" x2="196" y2="240" stroke="#fff" stroke-width="1" opacity="0.12"/>
  <line x1="-30" y1="0" x2="210" y2="240" stroke="#fff" stroke-width="1" opacity="0.12"/>
  <line x1="-16" y1="0" x2="224" y2="240" stroke="#fff" stroke-width="1" opacity="0.12"/>
  <line x1="-2" y1="0" x2="238" y2="240" stroke="#fff" stroke-width="1" opacity="0.12"/>
  <line x1="12" y1="0" x2="252" y2="240" stroke="#fff" stroke-width="1" opacity="0.12"/>
  <line x1="26" y1="0" x2="266" y2="240" stroke="#fff" stroke-width="1" opacity="0.12"/>
  <line x1="40" y1="0" x2="280" y2="240" stroke="#fff" stroke-width="1" opacity="0.12"/>
  <line x1="54" y1="0" x2="294" y2="240" stroke="#fff" stroke-width="1" opacity="0.12"/>
  <line x1="68" y1="0" x2="308" y2="240" stroke="#fff" stroke-width="1" opacity="0.12"/>
  <line x1="82" y1="0" x2="322" y2="240" stroke="#fff" stroke-width="1" opacity="0.12"/>
  <line x1="96" y1="0" x2="336" y2="240" stroke="#fff" stroke-width="1" opacity="0.12"/>
  <line x1="110" y1="0" x2="350" y2="240" stroke="#fff" stroke-width="1" opacity="0.12"/>
  <line x1="124" y1="0" x2="364" y2="240" stroke="#fff" stroke-width="1" opacity="0.12"/>
  <line x1="138" y1="0" x2="378" y2="240" stroke="#fff" stroke-width="1" opacity="0.12"/>
  <line x1="152" y1="0" x2="392" y2="240" stroke="#fff" stroke-width="1" opacity="0.12"/>
  <line x1="166" y1="0" x2="406" y2="240" stroke="#fff" stroke-width="1" opacity="0.12"/>
  <!-- White card -->
  <rect x="60" y="20" width="280" height="200" rx="12" fill="#fff" opacity="0.95"/>
  <!-- Title -->
  <text x="200" y="55" font-family="system-ui,sans-serif" font-size="14" font-weight="700" fill="#1a2e4a" text-anchor="middle">Write a Review</text>
  <!-- Star outlines -->
  <text x="200" y="85" font-family="system-ui,sans-serif" font-size="22" fill="none" stroke="#7dcf8c" stroke-width="1.5" text-anchor="middle">★★★★★</text>
  <!-- Input lines -->
  <rect x="80" y="100" width="240" height="10" rx="5" fill="#f0f0f0"/>
  <rect x="80" y="118" width="240" height="10" rx="5" fill="#f0f0f0"/>
  <rect x="80" y="136" width="240" height="36" rx="5" fill="#f0f0f0"/>
  <!-- Submit button -->
  <rect x="120" y="185" width="160" height="28" rx="14" fill="#7dcf8c"/>
  <text x="200" y="203" font-family="system-ui,sans-serif" font-size="11" font-weight="600" fill="#fff" text-anchor="middle">Submit Review</text>
</svg>
