<svg xmlns="http://www.w3.org/2000/svg" viewBox="0 0 400 240">
  <rect width="400" height="240" fill="#7dcf8c"/>
  <!-- Diagonal hatching -->
  <line x1="-240" y1="0" x2="0" y2="240" stroke="#fff" stroke-width="1" opacity="0.12"/>
  <line x1="-226" y1="0" x2="14" y2="240" stroke="#fff" stroke-width="1" opacity="0.12"/>
  <line x1="-212" y1="0" x2="28" y2="240" stroke="#fff" stroke-width="1" opacity="0.12"/>
  <line x1="-198" y1="0" x2="42" y2="240" stroke="#fff" stroke-width="1" opacity="0.12"/>
  <line x1="-184" y1="0" x2="56" y2="240" stroke="#fff" stroke-width="1" opacity="0.12"/>
  <line x1="-170" y1="0" x2="70" y2="240" stroke="#fff" stroke-width="1" opacity="0.12"/>
  <line x1="-156" y1="0" x2="84" y2="240" stroke="#fff" stroke-width="1" opacity="0.12"/>
  <line x1="-142" y1="0" x2="98" y2="240" stroke="#fff" stroke-width="1" opacity="0.12"/>
  <line x1="-128" y1="0" x2="112" y2="240" stroke="#fff" stroke-width="1" opacity="0.12"/>
  <line x1="-114" y1="0" x2="126" y2="240" stroke="#fff" stroke-width="1" opacity="0.12"/>
  <line x1="-100" y1="0" x2="140" y2="240" stroke="#fff" stroke-width="1" opacity="0.12"/>
  <line x1="-86" y1="0" x2="154" y2="240" stroke="#fff" stroke-width="1" opacity="0.12"/>
  <line x1="-72" y1="0" x2="168" y2="240" stroke="#fff" stroke-width="1" opacity="0.12"/>
  <line x1="-58" y1="0" x2="182" y2="240" stroke="#fff" stroke-width="1" opacity="0.12"/>
  <line x1="-44" y1="0" x2="196" y2="240" stroke="#fff" stroke-width="1" opacity="0.12"/>
  <line x1="-30" y1="0" x2="210" y2="240" stroke="#fff" stroke-width="1" opacity="0.12"/>
  <line x1="-16" y1="0" x2="224" y2="240" stroke="#fff" stroke-width="1" opacity="0.12"/>
  <line x1="-2" y1="0" x2="238" y2="240" stroke="#fff" stroke-width="1" opacity="0.12"/>
  <line x1="12" y1="0" x2="252" y2="240" stroke="#fff" stroke-width="1" opacity="0.12"/>
  <line x1="26" y1="0" x2="266" y2="240" stroke="#fff" stroke-width="1" opacity="0.12"/>
  <line x1="40" y1="0" x2="280" y2="240" stroke="#fff" stroke-width="1" opacity="0.12"/>
  <line x1="54" y1="0" x2="294" y2="240" stroke="#fff" stroke-width="1" opacity="0.12"/>
  <line x1="68" y1="0" x2="308" y2="240" stroke="#fff" stroke-width="1" opacity="0.12"/>
  <line x1="82" y1="0" x2="322" y2="240" stroke="#fff" stroke-width="1" opacity="0.12"/>
  <line x1="96" y1="0" x2="336" y2="240" stroke="#fff" stroke-width="1" opacity="0.12"/>
  <line x1="110" y1="0" x2="350" y2="240" stroke="#fff" stroke-width="1" opacity="0.12"/>
  <line x1="124" y1="0" x2="364" y2="240" stroke="#fff" stroke-width="1" opacity="0.12"/>
  <line x1="138" y1="0" x2="378" y2="240" stroke="#fff" stroke-width="1" opacity="0.12"/>
  <line x1="152" y1="0" x2="392" y2="240" stroke="#fff" stroke-width="1" opacity="0.12"/>
  <!-- White card -->
  <rect x="50" y="30" width="300" height="180" rx="12" fill="#fff" opacity="0.95"/>
  <!-- Left arrow chevron -->
  <circle cx="64" cy="120" r="14" fill="#f0f0f0"/>
  <text x="64" y="125" font-family="system-ui,sans-serif" font-size="14" fill="#666" text-anchor="middle">&#8249;</text>
  <!-- Right arrow chevron -->
  <circle cx="336" cy="120" r="14" fill="#f0f0f0"/>
  <text x="336" y="125" font-family="system-ui,sans-serif" font-size="14" fill="#666" text-anchor="middle">&#8250;</text>
  <!-- Stars row + reviewer name -->
  <text x="200" y="72" font-family="system-ui,sans-serif" font-size="15" fill="#7dcf8c" text-anchor="middle">★★★★★</text>
  <text x="200" y="90" font-family="system-ui,sans-serif" font-size="11" font-weight="600" fill="#1a2e4a" text-anchor="middle">Jessica T. — Verified Buyer</text>
  <!-- Review text lines -->
  <rect x="88" y="105" width="224" height="8" rx="4" fill="#e8e8e8"/>
  <rect x="88" y="119" width="210" height="8" rx="4" fill="#e8e8e8"/>
  <rect x="88" y="133" width="180" height="8" rx="4" fill="#e8e8e8"/>
  <!-- Product snippet line -->
  <rect x="88" y="155" width="100" height="7" rx="3" fill="#d0ead0"/>
  <!-- Dots -->
  <circle cx="187" cy="196" r="5" fill="#7dcf8c"/>
  <circle cx="200" cy="196" r="4" fill="#ccc"/>
  <circle cx="213" cy="196" r="4" fill="#ccc"/>
</svg>
